<?xml version="1.0" encoding="UTF-8"?>
<svg version="1.1" xmlns="http://www.w3.org/2000/svg" width="1443" height="606">
<path d="M0 0 C0.62068359 0.30236572 1.24136719 0.60473145 1.88085938 0.91625977 C11.90878993 6.10109639 20.33443705 13.32420809 28.23699951 21.29354858 C29.54838406 22.59791317 29.54838406 22.59791317 30.88626122 23.92862856 C33.28189112 26.31444844 35.67072915 28.70670048 38.05676532 31.10209131 C40.64300947 33.69517607 43.23793714 36.27954784 45.83171082 38.86509705 C50.89959306 43.91969337 55.95939726 48.9823007 61.01627746 54.04790162 C65.12847714 58.16689702 69.24362064 62.28292992 73.36084747 66.39690018 C73.94848797 66.98408097 74.53612846 67.57126177 75.14157625 68.17623592 C76.33563358 69.36933401 77.52969761 70.5624254 78.72376826 71.75551017 C89.89956291 82.92276618 101.0661721 94.09917062 112.22962216 105.27876516 C121.79517997 114.85772826 131.36858061 124.42879398 140.94775391 133.99414062 C152.09092995 145.12123989 163.22919467 156.25321809 174.35973477 167.39295828 C175.54795545 168.58213454 176.73618237 169.77130457 177.92441559 170.96046829 C178.50894123 171.54545676 179.09346686 172.13044522 179.6957054 172.73316061 C183.80250102 176.84253956 187.91275307 180.94844144 192.02437592 185.05298996 C197.03855694 190.0587326 202.04730719 195.06983555 207.04930106 200.08775733 C209.59835035 202.64465739 212.14967725 205.19916264 214.70763969 207.74714851 C217.48694878 210.51578181 220.2544252 213.29605843 223.02093506 216.07748413 C223.82181384 216.87167075 224.62269262 217.66585736 225.44784045 218.48411024 C241.73061678 234.93693225 250.17381716 255.08431059 250.11938477 278.19677734 C249.57032561 313.77437544 224.94148527 335.41085626 201.484375 358.8359375 C199.72692555 360.59406225 197.96962442 362.35233529 196.21246338 364.11074829 C192.55309297 367.77158307 188.89194533 371.43062831 185.22949219 375.08837891 C180.55034201 379.76181135 175.87572517 384.43974857 171.20241928 389.11902428 C167.58388268 392.74118262 163.96295768 396.36094584 160.34131622 399.97999954 C158.6167094 401.70394266 156.89283575 403.42861957 155.16973114 405.15406418 C152.76108158 407.56526921 150.34922255 409.973219 147.93652344 412.38037109 C147.2360791 413.08283966 146.53563477 413.78530823 145.81396484 414.50906372 C141.89992407 418.40655214 137.88840335 422.12820826 133.69292068 425.72175026 C130.59904611 428.42900818 127.70848859 431.33433312 124.8125 434.25 C124.23951172 434.81912109 123.66652344 435.38824219 123.07617188 435.97460938 C120.17018464 438.88713427 117.38014148 441.85277484 114.70584106 444.97988892 C110.69229367 449.58458746 106.43157965 453.91092136 102.11669922 458.23193359 C101.26849106 459.08510666 100.4202829 459.93827972 99.54637146 460.81730652 C97.24013906 463.13555374 94.93167533 465.45154449 92.62166357 467.76602507 C91.17162096 469.21902047 89.72215817 470.67259193 88.27286148 472.12633133 C83.71800079 476.69483058 79.16116751 481.26134842 74.60142219 485.82497251 C69.37524357 491.05562403 64.15565793 496.29273732 58.9417628 501.53563249 C54.88567697 505.61347723 50.82370608 509.68540039 46.7573911 513.75304472 C44.34060755 516.17086612 41.9262103 518.5909499 39.51797104 521.01728439 C14.29895212 546.39762143 14.29895212 546.39762143 1.0625 552.6875 C0.39565186 553.00783203 -0.27119629 553.32816406 -0.95825195 553.65820312 C-18.72533959 561.84653121 -39.54365736 563.45989454 -58.18359375 557.04882812 C-79.36507063 549.01520963 -95.45689048 535.45513842 -105.69921875 515.19921875 C-106.99136042 512.26958823 -108.10178239 509.34603926 -109.125 506.3125 C-109.44339844 505.37921875 -109.76179688 504.4459375 -110.08984375 503.484375 C-115.51936422 484.36845961 -112.91446558 463.61594844 -104.375 445.9375 C-104.07658203 445.3194751 -103.77816406 444.7014502 -103.47070312 444.06469727 C-97.22344539 432.04128124 -86.84449174 422.7543843 -77.35546875 413.31591797 C-75.86619293 411.82720718 -74.37735912 410.3380541 -72.88893127 408.84849548 C-68.87127042 404.8302637 -64.84749829 400.8182036 -60.82255554 396.80726767 C-56.60824818 392.60551123 -52.39965031 388.39804372 -48.19042969 384.19119263 C-40.22965394 376.23661886 -32.26379629 368.28715464 -24.29607582 360.33953774 C-15.22075492 351.28661582 -6.15115108 342.22797547 2.91798973 333.16886306 C21.56399608 314.54372966 40.21712918 295.92574752 58.875 277.3125 C55.12276238 272.83425635 51.25894166 268.55305864 47.11341858 264.43739319 C46.56603497 263.88986072 46.01865137 263.34232826 45.45468038 262.7782039 C43.64020275 260.96441459 41.8221884 259.15421416 40.00415039 257.34399414 C38.69421971 256.03598485 37.38451816 254.72774605 36.07502747 253.41929626 C33.26422471 250.61164439 30.4518783 247.80555137 27.63832283 245.00065804 C23.18470435 240.56060983 18.73494527 236.11670721 14.28575134 231.67222595 C4.03694849 221.4354461 -6.21686179 211.20368681 -16.47072601 200.97197723 C-25.86921254 191.59369642 -35.26662587 182.21434686 -44.65998656 172.8309316 C-49.07808991 168.41779504 -53.49861651 164.0071049 -57.92104518 159.59830296 C-60.67735056 156.84948554 -63.43155687 154.09857219 -66.18521309 151.34710121 C-67.45692123 150.07725647 -68.72948918 148.80827209 -70.00300598 147.54024124 C-81.67039361 135.92151066 -81.67039361 135.92151066 -86.81275272 129.83396053 C-87.99004679 128.46896898 -89.27145305 127.19544318 -90.5625 125.9375 C-106.08996675 110.03131454 -112.83671299 90.48647599 -112.59350586 68.46020508 C-111.93614066 48.69290729 -104.15265693 31.21076142 -90.75 16.75 C-89.88375 15.945625 -89.0175 15.14125 -88.125 14.3125 C-87.15626953 13.38824219 -87.15626953 13.38824219 -86.16796875 12.4453125 C-75.2153884 2.27916961 -61.95761192 -4.34125048 -47.125 -6.6875 C-46.39539063 -6.80996094 -45.66578125 -6.93242187 -44.9140625 -7.05859375 C-29.65545588 -9.11166208 -13.78213507 -6.74246869 0 0 Z " fill="#F760A4" transform="translate(548.125,24.6875)"/>
<path d="M0 0 C0.93199219 0.68642578 0.93199219 0.68642578 1.8828125 1.38671875 C17.68956622 13.62776291 25.66801576 33.36198802 28.53125 52.5625 C30.46806738 71.93067377 25.54458116 92.00768708 13.6875 107.625 C5.25600973 117.75199786 -3.91869971 127.05836515 -13.24047852 136.35400391 C-14.66072224 137.77396504 -16.08074478 139.19414744 -17.50056458 140.61453247 C-21.32825299 144.44250604 -25.15900153 148.26740359 -28.99033475 152.09172869 C-33.00398005 156.09909335 -37.01476545 160.10931834 -41.02586365 164.11923218 C-48.60965735 171.6999264 -56.19599501 179.2780694 -63.78326505 186.85528409 C-72.42616571 195.48698055 -81.06620355 204.12154018 -89.70600998 212.75633359 C-107.46750459 230.50739514 -125.23256571 248.25488375 -143 266 C-139.10006287 270.67048924 -135.04659867 275.0895473 -130.72038269 279.3662262 C-130.11724048 279.966695 -129.51409828 280.5671638 -128.89267904 281.18582863 C-126.88940964 283.17911071 -124.88255688 285.16874496 -122.87573242 287.15844727 C-121.43108586 288.59461793 -119.98670084 290.03105172 -118.54255676 291.46772766 C-115.44016214 294.55344736 -112.33640212 297.63778486 -109.23171043 300.72119331 C-104.31375185 305.60642016 -99.40184377 310.49769971 -94.49128723 315.3903656 C-93.66065756 316.21790881 -92.83002788 317.04545202 -91.97422761 317.8980723 C-90.27608557 319.5899067 -88.57795247 321.28175005 -86.8798281 322.97360218 C-75.45494314 334.35557213 -64.02566338 345.73306975 -52.58178711 357.09594727 C-44.8516867 364.77142828 -37.13063115 372.45588434 -29.41965181 380.15057606 C-25.34548614 384.2154045 -21.26691891 388.27557965 -17.17717552 392.32473946 C-13.32575937 396.13804541 -9.48641573 399.96311309 -5.65562248 403.79713249 C-4.25603744 405.19377049 -2.85222282 406.58618633 -1.44366074 407.97377014 C15.93217684 425.10245288 27.70284223 444.28874648 28.99609375 469.30078125 C29.01830639 490.33615314 21.89134706 509.14689782 8 525 C7.11054687 526.03253906 7.11054687 526.03253906 6.203125 527.0859375 C-6.60604906 540.9351727 -26.24027622 549.46239 -45.0078125 550.3359375 C-59.68783233 550.59714277 -72.09082269 548.68051709 -85.375 542.25 C-85.99286377 541.95158203 -86.61072754 541.65316406 -87.24731445 541.34570312 C-100.34741774 534.54081612 -110.38304269 522.87908453 -120.64453125 512.55078125 C-122.34417983 510.8473952 -124.04427594 509.14445559 -125.74479675 507.44194031 C-130.19747668 502.98166625 -134.64411946 498.51542143 -139.08947754 494.04785156 C-143.61525835 489.50157925 -148.14672785 484.96098499 -152.67773438 480.41992188 C-159.98979318 473.09032887 -167.29837029 465.75728588 -174.60246277 458.41975403 C-175.24277435 457.77655212 -175.88308594 457.13335022 -176.5428009 456.47065735 C-177.09302823 455.91783238 -177.64325556 455.36500742 -178.21015644 454.79543018 C-182.31305104 450.67972925 -186.42840214 446.57671097 -190.55194092 442.48170471 C-191.66764878 441.37332718 -192.78334007 440.26493298 -193.89901733 439.15652466 C-194.48953259 438.56988667 -195.08004784 437.98324867 -195.68845749 437.37883377 C-209.33012944 423.82588029 -222.95726471 410.25838754 -236.57633591 396.68272495 C-244.44385224 388.84096276 -252.31599795 381.00395565 -260.19921875 373.17797852 C-267.09034705 366.33686342 -273.97248336 359.48684749 -280.84420514 352.62623733 C-284.47486601 349.00205957 -288.10970276 345.38231934 -291.75539398 341.7732563 C-295.19078578 338.37210568 -298.61392632 334.95907031 -302.02850723 331.53703117 C-303.27491015 330.29198981 -304.52551701 329.05113852 -305.7808876 327.81513977 C-323.03483996 310.81421049 -333.7788107 291.33258053 -334.375 266.5 C-333.53852637 231.659055 -312.45664236 211.30403991 -289.45401275 188.29396999 C-286.95257851 185.79066078 -284.45398982 183.28451371 -281.95497131 180.77879333 C-276.51158171 175.32192579 -271.06451082 169.86874325 -265.61658931 164.41640067 C-262.20927756 161.00631214 -258.80269786 157.59549295 -255.39624214 154.18454933 C-245.94509613 144.72123131 -236.49301856 135.25884593 -227.03748226 125.79991436 C-226.13309331 124.89519606 -226.13309331 124.89519606 -225.21043387 123.97220062 C-224.60617828 123.36772675 -224.00192269 122.76325288 -223.37935632 122.14046162 C-222.15516503 120.91582688 -220.9309753 119.69119058 -219.70678711 118.46655273 C-219.09956409 117.85910828 -218.49234107 117.25166383 -217.86671735 116.62581197 C-208.0137062 106.76884723 -198.16747688 96.9051375 -188.32412332 87.03852942 C-178.19316071 76.88382772 -168.05655666 66.73478598 -157.91430002 56.5913642 C-152.22965804 50.90580764 -146.54743231 45.21788305 -140.87144279 39.52368736 C-136.04309052 34.67990049 -131.20958579 29.84132924 -126.36939161 25.00937428 C-123.90356428 22.54743967 -121.44017118 20.08319795 -118.98334885 17.61227417 C-116.31217035 14.92835992 -113.63183438 12.25392656 -110.94908142 9.58158875 C-109.80172599 8.42214871 -109.80172599 8.42214871 -108.63119167 7.23928565 C-78.88755365 -22.23611061 -33.15389821 -26.68617053 0 0 Z " fill="#F660A4" transform="translate(338,35)"/>
<path d="M0 0 C0.62068359 0.30236572 1.24136719 0.60473145 1.88085938 0.91625977 C11.72864872 6.00795626 20.07710785 13.06353431 27.82853699 20.90527344 C29.07382603 22.14671757 29.07382603 22.14671757 30.34427243 23.41324139 C32.6165981 25.68151939 34.88215532 27.95630091 37.14486277 30.23416591 C39.59796421 32.7003395 42.05985116 35.15771738 44.52062988 37.6162262 C48.77280659 41.86683717 53.01949787 46.12286401 57.26241112 50.38272095 C63.39679763 56.54158847 69.53954623 62.6920606 75.68430439 68.8405782 C85.65585489 78.81867896 95.62070084 88.80344726 105.58129883 98.79248047 C115.25159115 108.49035034 124.92505948 118.18503412 134.6027832 127.87548828 C135.20027936 128.4737726 135.79777551 129.07205693 136.41337761 129.68847108 C139.41114718 132.69015603 142.40897895 135.69177886 145.40684164 138.69337082 C170.23921032 163.55679102 195.06068487 188.43106237 219.875 213.3125 C216.00799754 213.3125 213.80393024 211.59384904 210.625 209.625 C193.35779798 199.32810746 173.13543648 196.63653609 153.4375 200.4375 C127.93002206 206.93525801 111.46250432 225.65945733 93.5 243.5625 C92.93190613 244.1278244 92.36381226 244.6931488 91.77850342 245.27560425 C90.15401522 246.89430393 88.53336026 248.51673472 86.9140625 250.140625 C86.41996887 250.63274979 85.92587524 251.12487457 85.41680908 251.63191223 C82.81944241 254.22661951 82.81944241 254.22661951 80.875 257.3125 C80.215 257.3125 79.555 257.3125 78.875 257.3125 C78.48320557 258.18781372 78.48320557 258.18781372 78.08349609 259.08081055 C75.9447706 263.03032362 72.64146655 265.95675958 69.5 269.125 C68.49066406 270.18364258 68.49066406 270.18364258 67.4609375 271.26367188 C66.80609375 271.92560547 66.15125 272.58753906 65.4765625 273.26953125 C64.88182129 273.87772705 64.28708008 274.48592285 63.67431641 275.11254883 C61.875 276.3125 61.875 276.3125 60.11947346 276.22145939 C56.803774 274.87867846 54.63223405 272.47514363 52.16410828 269.96910095 C51.59801576 269.40627728 51.03192324 268.8434536 50.44867641 268.26357466 C48.54931528 266.3715093 46.66088772 264.46889422 44.7722168 262.56616211 C43.41418053 261.20891654 42.0554913 259.85232404 40.69619751 258.49633789 C37.00121265 254.80649591 33.31565133 251.10736928 29.63180137 247.40641475 C25.77375059 243.53333629 21.90760402 239.66835549 18.04243469 235.80238342 C11.546778 229.30303105 5.05678835 222.79806436 -1.42944336 216.28930664 C-9.74160149 207.9483392 -18.06293877 199.61659353 -26.38728046 191.28778744 C-33.55295311 184.11812433 -40.71436383 176.94420848 -47.87510276 169.76961827 C-50.17129603 167.46933695 -52.46806749 165.16963414 -54.76491737 162.87000847 C-58.38460438 159.24540234 -62.00161476 155.61814491 -65.61661911 151.98886871 C-66.93996866 150.66102253 -68.26413886 149.3339936 -69.58921242 148.00786781 C-81.72490819 135.86037885 -81.72490819 135.86037885 -86.83000469 129.81447697 C-88.0014059 128.45584839 -89.27766069 127.18939471 -90.5625 125.9375 C-106.08996675 110.03131454 -112.83671299 90.48647599 -112.59350586 68.46020508 C-111.93614066 48.69290729 -104.15265693 31.21076142 -90.75 16.75 C-89.88375 15.945625 -89.0175 15.14125 -88.125 14.3125 C-87.15626953 13.38824219 -87.15626953 13.38824219 -86.16796875 12.4453125 C-75.2153884 2.27916961 -61.95761192 -4.34125048 -47.125 -6.6875 C-46.39539063 -6.80996094 -45.66578125 -6.93242187 -44.9140625 -7.05859375 C-29.65545588 -9.11166208 -13.78213507 -6.74246869 0 0 Z " fill="#850AEC" transform="translate(548.125,24.6875)"/>
<path d="M0 0 C4.67759696 3.91286343 9.12452672 7.97450743 13.43783569 12.28393555 C14.34995597 13.18948244 14.34995597 13.18948244 15.28050292 14.11332321 C17.29921355 16.11877512 19.31442326 18.12770613 21.32958984 20.13671875 C22.78380731 21.58302513 24.23820353 23.02915179 25.69276428 24.47511292 C30.45256978 29.20881811 35.2070341 33.94786864 39.9609375 38.6875 C41.60355612 40.3247543 43.24618132 41.96200199 44.88881302 43.59924316 C51.72479886 50.41361928 58.55934635 57.22943262 65.39017296 64.04898071 C75.15023478 73.79281606 84.91866802 83.52808046 94.69908178 93.25148869 C101.59219624 100.10580347 108.47560626 106.96976954 115.35198557 113.84087276 C119.4512363 117.93648432 123.55449546 122.02787403 127.66819382 126.10897827 C131.5419608 129.95248759 135.40346445 133.80791958 139.25626945 137.67243767 C140.66394157 139.08032902 142.07582138 140.48402932 143.4924221 141.88293648 C160.87730392 159.06260995 172.70010792 178.23586372 173.99609375 203.30078125 C174.01830639 224.33615314 166.89134706 243.14689782 153 259 C152.11054687 260.03253906 152.11054687 260.03253906 151.203125 261.0859375 C138.39395094 274.9351727 118.75972378 283.46239 99.9921875 284.3359375 C85.31216767 284.59714277 72.90917731 282.68051709 59.625 276.25 C59.00713623 275.95158203 58.38927246 275.65316406 57.75268555 275.34570312 C44.65258226 268.54081612 34.61695731 256.87908453 24.35546875 246.55078125 C22.65582017 244.8473952 20.95572406 243.14445559 19.25520325 241.44194031 C14.80252332 236.98166625 10.35588054 232.51542143 5.91052246 228.04785156 C1.38474165 223.50157925 -3.14672785 218.96098499 -7.67773438 214.41992188 C-14.98979318 207.09032887 -22.29837029 199.75728588 -29.60246277 192.41975403 C-30.24277435 191.77655212 -30.88308594 191.13335022 -31.5428009 190.47065735 C-32.09302823 189.91783238 -32.64325556 189.36500742 -33.21015644 188.79543018 C-35.47084299 186.52768737 -37.73541757 184.26385222 -40 182 C-80.33333333 141.66666667 -120.66666667 101.33333333 -161 61 C-157.3108372 61 -156.55512764 61.89837148 -153.6875 64.125 C-137.0081308 76.10117498 -116.53550027 79.51501364 -96.5 76.37890625 C-89.19650308 74.98914848 -82.43783592 72.60361044 -75.75 69.375 C-74.86683105 68.95250977 -74.86683105 68.95250977 -73.96582031 68.52148438 C-61.52080482 62.03137831 -51.44873932 51.87738474 -41.69921875 41.9921875 C-40.48534977 40.77270448 -39.2708028 39.553896 -38.05561829 38.33572388 C-34.90081369 35.16961261 -31.75513387 31.99459235 -28.6114502 28.81744385 C-25.38524099 25.56022325 -22.15023197 22.31176668 -18.91601562 19.0625 C-12.60217282 12.7167442 -6.29796197 6.36151467 0 0 Z " fill="#AD18D5" transform="translate(193,301)"/>
<path d="M0 0 C13.20731402 10.69756836 19.35089917 20.85896038 21.3125 37.6796875 C21.3739799 39.83916902 21.25724903 41.85625812 21 44 C20.89365234 45.12341797 20.89365234 45.12341797 20.78515625 46.26953125 C18.78573412 60.17562449 10.7985261 71.45957691 0 80 C-3.34895626 82.36850525 -6.81745941 84.45021075 -10.3828125 86.4765625 C-13.05052241 87.88026166 -13.05052241 87.88026166 -15 90 C-13.94941406 90.36351562 -12.89882813 90.72703125 -11.81640625 91.1015625 C-3.85023248 93.92744285 3.25393762 96.7782157 10 102 C10.86625 102.5775 11.7325 103.155 12.625 103.75 C21.00296719 111.68702155 25.97762375 121.65839605 26.47119141 133.17236328 C26.72109123 152.27911087 17.71422027 166.99677159 4.74609375 180.3203125 C-21.53951548 205.9702811 -57.19389033 213.57891782 -92.7421875 213.21484375 C-109.41279951 212.80953289 -128.14304063 208.94244227 -140.80859375 197.34375 C-149.41284283 187.90267869 -151.677668 176.83699477 -151.29296875 164.34765625 C-149.89016187 138.56463845 -137.19465702 112.11828708 -128.41201782 88.08157349 C-118.8724767 64.31740151 -118.8724767 64.31740151 -114.8125 39.375 C-114.79832031 38.43398438 -114.78414062 37.49296875 -114.76953125 36.5234375 C-114.82039293 33.75295977 -114.82039293 33.75295977 -117 31 C-125.30071839 31.41503592 -130.44046972 37.22187332 -135.875 42.9375 C-141.66876786 49.45099057 -146.33930614 56.6519699 -151 64 C-151.99 63.67 -152.98 63.34 -154 63 C-155.16908156 44.5977903 -148.80299752 27.01199889 -137 13 C-105.23340134 -22.7876871 -38.20740176 -29.39485863 0 0 Z M-72 21 C-71.92998779 21.57540527 -71.85997559 22.15081055 -71.7878418 22.74365234 C-71.00759214 29.71553836 -70.8083646 36.61292038 -70.8125 43.625 C-70.81185547 44.76493408 -70.81121094 45.90486816 -70.81054688 47.0793457 C-70.85835995 54.75280049 -71.36000547 62.15642331 -72.5625 69.73046875 C-73.02536773 73.18957848 -73.07086678 76.51424038 -73 80 C-59.3724092 80.68137954 -47.14305068 76.56921675 -36.6875 67.8125 C-30.67986595 62.09815202 -26.82897322 56.18942831 -26.5 47.75 C-26.75124997 43.51180979 -27.61174589 40.58238116 -30 37 C-30.36738281 36.43667969 -30.73476563 35.87335938 -31.11328125 35.29296875 C-36.26741017 28.31436942 -45.19351133 24.07444953 -53.578125 22.30078125 C-59.68932585 21.54180953 -65.85165946 21.28353998 -72 21 Z M-80 102 C-80.27457031 102.96550781 -80.54914063 103.93101562 -80.83203125 104.92578125 C-84.44785967 117.56692023 -88.24898962 130.0971899 -92.72729492 142.46362305 C-95.67475668 150.65775196 -97.8336466 158.95747186 -94.75 167.4375 C-92.67231392 170.47982605 -90.87031156 172.36921096 -87.34375 173.55859375 C-73.49704931 176.16638905 -60.56728316 173.22947442 -48.7265625 165.87109375 C-40.31167366 160.09640642 -34.99389291 152.4829628 -32.3359375 142.5078125 C-31.19264272 134.82380802 -33.1640438 128.37706569 -37.47265625 122.0078125 C-47.32118336 109.06115537 -60.54683819 104.78287872 -76 102 C-77.32 102 -78.64 102 -80 102 Z " fill="#8432A7" transform="translate(914,383)"/>
<path d="M0 0 C6.19691974 5.16191623 10.15701366 12.2099111 13.625 19.375 C13.75455078 17.85519531 13.75455078 17.85519531 13.88671875 16.3046875 C15.09076098 4.11698636 15.09076098 4.11698636 17.6875 0.6875 C27.27265678 -6.85826172 38.83300137 -7.73963773 50.625 -6.625 C57.46387061 -5.07034508 63.56274615 -2.62733785 67.91015625 3.0546875 C69.72689441 5.9638052 70.82971407 8.19017442 70.23168945 11.65136719 C69.96573975 12.44188477 69.69979004 13.23240234 69.42578125 14.046875 C69.13719238 14.9248877 68.84860352 15.80290039 68.55126953 16.70751953 C68.09276611 18.02792236 68.09276611 18.02792236 67.625 19.375 C67.2225708 20.55811768 67.2225708 20.55811768 66.81201172 21.76513672 C66.27101448 23.34455819 65.72589873 24.92257403 65.17700195 26.49926758 C56.86163583 50.55300809 50.37087849 75.9362583 50.1875 101.5 C50.17734863 102.50160156 50.16719727 103.50320313 50.15673828 104.53515625 C50.22211614 109.90534877 50.66383616 113.70939967 53.625 118.375 C56.41438212 118.79390218 56.41438212 118.79390218 59.625 118.375 C62.39622275 116.02073501 62.39622275 116.02073501 64.625 113.375 C65.285 113.045 65.945 112.715 66.625 112.375 C67.285 112.705 67.945 113.035 68.625 113.375 C69.33293246 123.10907136 65.62835344 129.86997723 59.53515625 137.30859375 C51.43056227 146.07614021 39.98276941 151.77138332 28.109375 152.62890625 C20.38477219 152.8674149 14.20070325 152.62986681 7.625 148.375 C6.97917969 147.97410156 6.33335938 147.57320312 5.66796875 147.16015625 C0.1334133 143.14032124 -1.81614197 137.88451707 -3.375 131.375 C-3.91046563 127.70842181 -4.23179565 124.07683247 -4.375 120.375 C-4.97634766 121.39207031 -4.97634766 121.39207031 -5.58984375 122.4296875 C-14.13170703 136.41432534 -24.22197896 147.29406755 -40.28515625 151.92578125 C-48.68467172 153.73128458 -56.85215936 152.414036 -64.375 148.375 C-79.05799202 137.81958407 -85.6913424 122.77426272 -88.80859375 105.37109375 C-92.92079567 77.99480387 -89.1579219 47.42677676 -73.421875 24.06640625 C-69.4324141 18.82072198 -64.99399913 14.06795691 -60.375 9.375 C-59.70597656 8.68148438 -59.03695312 7.98796875 -58.34765625 7.2734375 C-43.43179769 -7.04326395 -17.63529149 -12.03027636 0 0 Z M-26.28515625 34.4609375 C-34.74209148 46.25322475 -39.56874716 59.88688083 -40.375 74.375 C-40.42785156 75.25285156 -40.48070312 76.13070312 -40.53515625 77.03515625 C-40.8646334 87.67870069 -39.8745231 99.9829627 -33.75390625 108.9921875 C-31.38399885 111.36880852 -29.23434239 112.24300501 -25.93359375 112.75 C-19.59081765 111.82037175 -14.16511665 104.6071771 -10.25 99.8125 C-3.14458816 89.55356268 1.24660606 78.24286775 5.0625 66.4375 C5.40458496 65.38377197 5.74666992 64.33004395 6.09912109 63.24438477 C9.55063246 52.89875188 9.55063246 52.89875188 8.65625 42.3359375 C4.57909686 35.45054112 0.279703 28.57442665 -7.375 25.375 C-16.11839372 24.56542651 -20.83782562 28.04124267 -26.28515625 34.4609375 Z " fill="#7C32B6" transform="translate(1047.375,442.625)"/>
<path d="M0 0 C9.33096587 9.76496428 13.21997553 20.36644203 13.10742188 33.70874023 C12.61169582 47.22204185 6.52539225 60.28465195 -2.59765625 70.23046875 C-16.12105577 82.70649792 -31.72876852 87.59168235 -49.7734375 87.1015625 C-59.44016463 86.62758618 -67.75658491 83.09045754 -76.3125 78.8125 C-75.70760002 88.33967468 -72.81434547 97.69916754 -65.59765625 104.40625 C-56.68154007 111.60976565 -47.60598202 112.89677174 -36.3125 111.8125 C-24.92741247 109.4988829 -14.96410962 104.27280353 -5.96875 97.01171875 C-4.3125 95.8125 -4.3125 95.8125 -1.3125 94.8125 C-0.61098848 93.4971659 0.05275925 92.16132408 0.6875 90.8125 C2.3125 89.0625 2.3125 89.0625 3.6875 87.8125 C4.6775 88.1425 5.6675 88.4725 6.6875 88.8125 C7.51082296 104.30316902 2.9238056 117.0625078 -7.3125 128.8125 C-27.2257937 146.25975114 -51.41943248 151.25937688 -77.3125 149.8125 C-93.52973695 148.10617082 -109.70741158 141.60806008 -120.3125 128.8125 C-122.5061033 125.91477712 -124.44999671 122.93219301 -126.3125 119.8125 C-126.97765625 118.72388672 -126.97765625 118.72388672 -127.65625 117.61328125 C-137.48149036 99.96978561 -137.69411614 77.85979309 -132.3125 58.8125 C-124.36594037 33.50463458 -109.28493835 12.74423416 -85.78515625 -0.171875 C-59.12654583 -13.95776414 -25.89342796 -17.09943356 0 0 Z M-68.3125 28.8125 C-74.58764449 38.51471841 -76.67455755 49.43952595 -77.3125 60.8125 C-68.76419978 64.15424389 -60.65353073 66.88641164 -51.61328125 63.9296875 C-41.3751373 59.30798425 -37.36105549 51.94195357 -33.3125 41.8125 C-31.46948488 36.28345465 -31.18749998 29.86745694 -33.21875 24.3515625 C-35.77060391 19.95125031 -38.36445567 17.42818794 -43.3125 15.8125 C-53.68393349 14.16249922 -62.26406804 21.19506886 -68.3125 28.8125 Z " fill="#7C32B6" transform="translate(1421.3125,446.1875)"/>
<path d="M0 0 C1.74071777 -0.01522705 1.74071777 -0.01522705 3.51660156 -0.03076172 C17.23258663 0.10839732 30.22826306 3.24011536 40.5 12.8125 C45.36858881 18.11307391 48.43472421 24.15427989 48.5625 31.4375 C47.34687273 38.50093422 43.96176432 43.78926117 38.5625 48.4375 C29.57734115 54.37735333 20.12949103 55.77837068 9.5625 55.4375 C9.39234375 54.4475 9.2221875 53.4575 9.046875 52.4375 C6.96250824 40.31046538 6.96250824 40.31046538 0.375 30.125 C-4.77843669 27.03293799 -9.20168773 25.10762606 -15.25 26 C-18.65563164 27.53587309 -20.36532419 28.32923629 -22.4375 31.4375 C-23.94941085 36.72397447 -23.80579191 41.51985088 -21.546875 46.54296875 C-14.74510237 58.15867201 0.36654784 64.00609747 12.12963867 69.34082031 C17.39157377 71.77301434 22.33797799 74.54890559 27.25 77.625 C27.89702881 78.02904053 28.54405762 78.43308105 29.21069336 78.84936523 C34.69566392 82.36253451 39.88400401 86.09743258 43.8125 91.375 C44.29203125 92.00277344 44.7715625 92.63054687 45.265625 93.27734375 C49.77373259 100.78633019 49.70636697 110.43940763 48.09765625 118.875 C47.41566936 120.87657099 46.60630895 122.59897287 45.5625 124.4375 C45.1603125 125.15035156 44.758125 125.86320313 44.34375 126.59765625 C33.31571022 144.45695401 13.56292211 154.68532698 -6.33984375 159.625 C-29.30484535 164.49892812 -56.71898102 165.18504108 -77.1171875 152.1328125 C-84.80881541 146.51300355 -90.4545785 139.90734006 -92.4375 130.4375 C-93.04961449 121.40881122 -91.21347541 115.11746971 -85.25 108.1875 C-77.731486 100.39097021 -69.39395073 95.73564272 -58.28125 95.36572266 C-56.33318758 95.3635791 -54.38515542 95.39762343 -52.4375 95.4375 C-52.36756836 95.99099121 -52.29763672 96.54448242 -52.22558594 97.11474609 C-49.65900614 117.916882 -49.65900614 117.916882 -37.4375 134.4375 C-32.62803339 137.79343893 -27.11814203 138.19422786 -21.4375 137.4375 C-16.07994904 135.51686852 -12.97912784 132.52075568 -10.4375 127.4375 C-9.79790823 122.10756862 -10.67332951 118.77547181 -13.66015625 114.46484375 C-19.88876774 107.36011987 -28.80258287 102.97562101 -36.88232422 98.28955078 C-70.95291094 78.47229172 -70.95291094 78.47229172 -76.56640625 62.15625 C-78.90014644 52.19337708 -78.65735633 41.40660299 -73.4375 32.4375 C-71.62524965 29.58072495 -69.65149002 26.99374935 -67.4375 24.4375 C-66.66792969 23.54417969 -66.66792969 23.54417969 -65.8828125 22.6328125 C-49.49402274 4.98937855 -22.98126925 0.1422333 0 0 Z " fill="#7C32B6" transform="translate(1220.4375,434.5625)"/>
</svg>
