<?xml version="1.0" encoding="UTF-8"?>
<svg version="1.1" xmlns="http://www.w3.org/2000/svg" width="256" height="256">
<path d="M0 0 C5.89830959 3.47074085 9.89049729 8.8969873 11.9296875 15.39453125 C13.39214034 22.1270844 12.45056614 28.28939044 9.36328125 34.390625 C3.85857463 41.28284311 -2.57710954 47.46978474 -8.828125 53.6796875 C-9.65884018 54.50898773 -10.48955536 55.33828796 -11.34544373 56.19271851 C-13.96099959 58.80274264 -16.58003654 61.40924049 -19.19921875 64.015625 C-20.98916525 65.80054766 -22.77888085 67.58570191 -24.56835938 69.37109375 C-28.9218178 73.71361391 -33.27812837 78.05325613 -37.63671875 82.390625 C-36.1538356 85.84871654 -34.20602489 88.04408432 -31.52587891 90.66503906 C-30.6780484 91.49980774 -29.8302179 92.33457642 -28.95669556 93.19464111 C-28.03899384 94.08947205 -27.12129211 94.98430298 -26.17578125 95.90625 C-25.22342483 96.84470166 -24.27180639 97.78390277 -23.32089233 98.72381592 C-19.29105947 102.70491586 -15.25030376 106.67478471 -11.20019531 110.63525391 C-8.71886495 113.06266919 -6.24765243 115.50002288 -3.78217697 117.94353485 C-2.39382852 119.3136049 -0.99434037 120.67235735 0.40536499 122.03082275 C6.84492911 128.41944011 12.35212309 135.01029577 12.67578125 144.515625 C12.5738614 152.35071324 8.87729083 159.00193382 3.36328125 164.390625 C-2.74072651 168.19192324 -8.40371737 169.97393156 -15.63671875 169.390625 C-29.38550831 165.97075802 -39.16847611 153.0521957 -48.90625 143.39453125 C-49.51969458 142.78641035 -50.13313915 142.17828945 -50.76517296 141.55174065 C-54.00309816 138.34030859 -57.23749811 135.12536917 -60.46948242 131.90795898 C-63.12469993 129.26612776 -65.78702117 126.63178112 -68.45581055 124.00366211 C-71.70757102 120.80141084 -74.94670293 117.58687814 -78.17734337 114.36332512 C-79.39978515 113.14755156 -80.6264419 111.93599941 -81.85755348 110.72900581 C-96.25739563 96.5956607 -96.25739563 96.5956607 -98.265625 86.10546875 C-98.24371094 85.18894531 -98.22179687 84.27242188 -98.19921875 83.328125 C-98.20050781 82.40902344 -98.20179687 81.48992187 -98.203125 80.54296875 C-96.77647595 72.60292887 -92.91461967 66.92522226 -87.25097656 61.3737793 C-86.61950714 60.73515457 -85.98803772 60.09652985 -85.33743286 59.43855286 C-83.26708154 57.35142789 -81.17927914 55.28284954 -79.08984375 53.21484375 C-77.63418565 51.75835597 -76.17934428 50.30105151 -74.72528076 48.8429718 C-71.6834793 45.79832011 -68.63312764 42.76258819 -65.57617188 39.7331543 C-61.66935695 35.8604347 -57.78294154 31.96797532 -53.90251541 28.06883526 C-50.90384304 25.05956694 -47.89545506 22.06016629 -44.88399506 19.06369972 C-43.44757014 17.63243692 -42.01393729 16.19836606 -40.58322906 14.76138878 C-38.57845202 12.75112786 -36.56114141 10.75432784 -34.54003906 8.76049805 C-33.95793671 8.17186981 -33.37583435 7.58324158 -32.77609253 6.97677612 C-23.4162471 -2.1706016 -12.2530653 -5.41192931 0 0 Z " fill="#F65FA5" transform="translate(104.63671875,44.609375)"/>
<path d="M0 0 C3.93579406 2.0174227 6.77432753 4.73694697 9.83668327 7.88604355 C10.82650955 8.86732727 10.82650955 8.86732727 11.83633232 9.86843491 C13.99009534 12.01118163 16.1216492 14.17457878 18.25294304 16.33965683 C19.75494329 17.84523839 21.25805973 19.34970716 22.76223564 20.85311508 C25.90062307 23.99617826 29.02872538 27.14900907 32.14918327 30.30987167 C36.14410795 34.35587348 40.15860773 38.38173483 44.18027973 42.40113258 C47.28071505 45.50238437 50.37326529 48.61139835 53.46322632 51.7230835 C54.94099317 53.21037602 56.42056554 54.69587689 57.90198898 56.17952728 C59.96990977 58.25396933 62.02764684 60.33800153 64.08277702 62.42510605 C64.69213097 63.03310043 65.30148491 63.64109482 65.92930412 64.26751328 C71.44023736 69.90394981 74.22564887 75.27172622 74.56049919 83.23453903 C74.32867311 96.41572426 64.47663145 104.29234949 55.74122429 112.87481308 C54.26270758 114.35042197 52.78545332 115.82729675 51.30940056 117.30537033 C48.22339401 120.38817163 45.12593419 123.45880211 42.01905632 126.52056503 C38.04824583 130.43463657 34.10219562 134.37257725 30.16379738 138.31923199 C27.11918336 141.36665034 24.06444171 144.40374425 21.0063076 147.43758965 C19.54784518 148.88588137 18.09188837 150.33670105 16.63855553 151.79014015 C14.60277948 153.82192616 12.55437869 155.8400754 10.50196648 157.85503769 C9.61478683 158.74729301 9.61478683 158.74729301 8.70968437 159.6575737 C2.8646111 165.34223374 -3.44828167 168.78048243 -11.61815071 169.59746933 C-18.46089374 169.04563521 -25.77161806 166.41120478 -30.49315071 161.28496933 C-34.86451482 155.00720476 -36.0596442 149.32507483 -36.15721321 141.75371933 C-34.46272145 132.90249178 -29.3981383 126.44644684 -23.07518196 120.30840683 C-22.37672661 119.61228287 -21.67827126 118.91615891 -20.95865059 118.19894028 C-19.49629617 116.74624839 -18.02797604 115.29953879 -16.55394173 113.8586998 C-14.2886406 111.64333419 -12.043062 109.40933896 -9.79979134 107.17168808 C-8.37185334 105.75781741 -6.94285498 104.34501666 -5.51268196 102.93340683 C-4.83872887 102.26481644 -4.16477577 101.59622604 -3.47039986 100.90737534 C-2.84602531 100.29898819 -2.22165077 99.69060104 -1.57835579 99.06377792 C-1.02940147 98.52546341 -0.48044716 97.9871489 0.08514214 97.43252182 C1.50684929 96.28496933 1.50684929 96.28496933 3.50684929 96.28496933 C4.00184929 94.79996933 4.00184929 94.79996933 4.50684929 93.28496933 C5.16684929 93.28496933 5.82684929 93.28496933 6.50684929 93.28496933 C7.00184929 91.79996933 7.00184929 91.79996933 7.50684929 90.28496933 C8.16684929 90.28496933 8.82684929 90.28496933 9.50684929 90.28496933 C10.00184929 88.79996933 10.00184929 88.79996933 10.50684929 87.28496933 C11.16684929 87.28496933 11.82684929 87.28496933 12.50684929 87.28496933 C13.00184929 85.79996933 13.00184929 85.79996933 13.50684929 84.28496933 C14.16684929 84.28496933 14.82684929 84.28496933 15.50684929 84.28496933 C10.29961778 78.11844451 4.72410664 72.42528266 -1.04002571 66.78106308 C-2.87249718 64.97096176 -4.7045151 63.16040118 -6.53611946 61.34942245 C-9.39760298 58.52511705 -12.26119688 55.70319856 -15.13426399 52.89068222 C-17.92622526 50.15674994 -20.70191875 47.40659986 -23.47752571 44.65606308 C-24.33690742 43.82046356 -25.19628914 42.98486404 -26.08171272 42.12394333 C-31.43787498 36.79147223 -34.95648413 32.70457649 -35.89158821 25.00371933 C-35.82114404 15.32938671 -34.58258695 9.37440557 -27.49315071 2.28496933 C-18.15992889 -3.45012197 -10.10815635 -4.2383284 0 0 Z " fill="#F660A4" transform="translate(172.49315071105957,44.715030670166016)"/>
<path d="M0 0 C2.88122732 1.13380462 4.48349687 2.78536526 6.68035889 4.96697998 C7.56807983 5.84201675 8.45580078 6.71705353 9.37042236 7.61860657 C10.33161343 8.58185008 11.29233588 9.5455614 12.25262451 10.50970459 C13.24587158 11.49838785 14.23948903 12.48669913 15.23345947 13.47465515 C17.31637215 15.54863252 19.39350659 17.62819609 21.46697998 19.71160889 C24.11133279 22.3674056 26.77111874 25.00709839 29.43578339 27.64249516 C31.4933511 29.68161276 33.54141547 31.73007596 35.58692932 33.78127861 C36.5629658 34.75746748 37.5420718 35.73059809 38.5243988 36.70045662 C45.52026332 43.62001615 52.11748983 50.58151386 52.47137451 60.97454834 C52.36945466 68.80963658 48.67288409 75.46085716 43.15887451 80.84954834 C37.05486676 84.65084658 31.39187589 86.4328549 24.15887451 85.84954834 C10.51412513 82.45556026 0.95895431 69.79200579 -8.63018799 60.15814209 C-9.82636836 58.96009161 -11.02277344 57.76226544 -12.21939087 56.56465149 C-15.33520077 53.44506306 -18.44799327 50.32248134 -21.56011963 47.19921875 C-24.7495911 43.99943165 -27.9419726 40.80255061 -31.13409424 37.60540771 C-37.3725874 31.35625973 -43.60788886 25.10393947 -49.84112549 18.84954834 C-46.84112549 18.84954834 -46.84112549 18.84954834 -43.90362549 20.34954834 C-38.40662987 22.78359937 -31.73087435 23.10836172 -26.00567627 21.2555542 C-18.560523 18.03055427 -13.6184199 11.79435777 -8.20050049 5.96478271 C-7.43737549 5.16749756 -6.67425049 4.3702124 -5.88800049 3.54876709 C-4.864646 2.447948 -4.864646 2.447948 -3.82061768 1.32489014 C-1.84112549 -0.15045166 -1.84112549 -0.15045166 0 0 Z " fill="#AD18D5" transform="translate(64.84112548828125,128.15045166015625)"/>
<path d="M0 0 C6.60887421 3.867876 11.71695171 9.78484592 17.02642822 15.22741699 C18.35602978 16.56822602 19.68697487 17.90770395 21.01919556 19.24591064 C24.50136748 22.75085817 27.96513223 26.27345002 31.42523193 29.8001709 C34.96744641 33.40405104 38.52696745 36.99074933 42.08502197 40.57897949 C49.04857433 47.60664547 55.99278044 54.65309459 62.92486572 61.71179199 C60.92486572 62.71179199 60.92486572 62.71179199 57.86236572 61.77429199 C51.56311402 59.90013446 46.13465386 59.86279987 40.04986572 62.52429199 C32.39716384 66.70283436 26.34803535 73.6107588 20.92486572 80.33679199 C18.92486572 82.71179199 18.92486572 82.71179199 15.92486572 83.71179199 C9.70638114 77.58618898 3.49891018 71.44969357 -2.69496632 65.29920864 C-5.57170564 62.44330026 -8.45202735 59.59121423 -11.34100342 56.74768066 C-14.13145329 54.00084855 -16.91187687 51.24422026 -19.68576622 48.48066902 C-20.74315535 47.43064269 -21.80404594 46.38412971 -22.86853981 45.34130669 C-24.36469111 43.87440094 -25.84764127 42.39523216 -27.32830811 40.91271973 C-28.59738762 39.65696388 -28.59738762 39.65696388 -29.8921051 38.37583923 C-35.50785612 31.52268941 -35.86803123 24.30331923 -35.07513428 15.71179199 C-33.86754264 10.47889489 -30.83207721 6.46873493 -27.07513428 2.71179199 C-18.21468257 -2.73279086 -9.72443042 -4.08899937 0 0 Z " fill="#840AEC" transform="translate(172.07513427734375,44.2882080078125)"/>
</svg>
